# xmcd
#
# Track frame offsets: 
#        150
#        18005
#        36079
#        56596
#        71915
#        93475
#        109845
#        127478
#        145685
#        165904
#
# Disc length: 2416 seconds
#
# Revision: 0
# Processed by: cddbd v1.5.2PL0 Copyright (c) Steve Scherf et al.
# Submitted via: ExactAudioCopy v0.95b4
#
DISCID=87096e0a
DTITLE=ลูกแพร อุไรพร - ผู้บังคับหมู่
DYEAR=2007
DGENRE=Country
TTITLE0=ผู้บังคับหมู่
TTITLE1=สาวใส่เสื้อน้อง
TTITLE2=ผู้บ่าว อบต.
TTITLE3=บักเสินขึ้น
TTITLE4=บินเดี่ยว
TTITLE5=มักสาวเชียงใหม่
TTITLE6=ลูกจ้างประจำ
TTITLE7=จำใจเป็นอ้ายฮัก
TTITLE8=ก้อยกะปอม
TTITLE9=มวยเชิง
EXTD=
EXTT0=
EXTT1=
EXTT2=
EXTT3=
EXTT4=
EXTT5=
EXTT6=
EXTT7=
EXTT8=
EXTT9=
PLAYORDER=
